Patient4_TMGait_0pt3_03_right_28_GRF.mot
version=1
nRows=32
nColumns=19
inDegrees=no
endheader
time	F1x	F1y	F1z	M1x	M1y	M1z	F2x	F2y	F2z	M2x	M2y	M2z	EC1x	EC1y	EC1z	EC2x	EC2y	EC2z
52.34	-24.0761	881.1966	59.9271	-347.1205	-64.0009	829.188	-13.3998	0.47348	-0.80045	0.90965	3.0993	-3.6095	-0.0592	0.0182	-0.0073	-0.0462	0.0165	0.9585
52.3579	-24.1109	890.832	60.4683	-350.455	-64.3228	835.8938	-9.3417	1.1371	-0.65213	0.88347	2.3061	-1.6842	-0.0592	0.0182	-0.0073	-0.0462	0.0165	0.9585
52.3757	-23.6909	897.4537	61.166	-352.4918	-64.5218	839.5237	-5.7035	1.5112	-0.45419	0.80195	1.5117	-0.19299	-0.0592	0.0182	-0.0073	-0.0462	0.0165	0.9585
52.3936	-22.7705	898.6647	61.8774	-352.3174	-64.442	837.9655	-2.8015	1.6912	-0.26632	0.70726	0.83862	0.87124	-0.0592	0.0182	-0.0073	-0.0462	0.0165	0.9585
52.4114	-21.3739	892.9084	62.4141	-349.3638	-63.9278	829.8484	-0.7043	1.7509	-0.11814	0.62298	0.33313	1.5699	-0.0592	0.0182	-0.0073	-0.0462	0.0165	0.9585
52.4293	-19.573	879.7894	62.5914	-343.5291	-62.8536	814.8356	0.66189	1.7332	-0.017229	0.55585	-0.0077197	1.9706	-0.0592	0.0182	-0.0073	-0.0462	0.0165	0.9585
52.4471	-17.4567	860.0377	62.2555	-335.1537	-61.1319	793.5847	1.4406	1.6505	0.04018	0.49943	-0.20894	2.1319	-0.0592	0.0182	-0.0073	-0.0462	0.0165	0.9585
52.465	-15.094	835.2847	61.3174	-324.924	-58.7269	767.5394	1.7939	1.4903	0.063174	0.43858	-0.30362	2.0934	-0.0592	0.0182	-0.0073	-0.0462	0.0165	0.9585
52.4829	-12.5081	807.7476	59.769	-313.7432	-55.6528	738.6498	1.8687	1.2166	0.063959	0.35121	-0.326	1.8649	-0.0592	0.0182	-0.0073	-0.0462	0.0165	0.9585
52.5007	-9.6539	779.8463	57.682	-302.5767	-51.9623	709.0305	1.7843	0.77407	0.054314	0.21038	-0.30728	1.4266	-0.0592	0.0182	-0.0073	-0.0462	0.0165	0.9585
52.5186	-6.4025	753.8828	55.2086	-292.3258	-47.7508	680.6773	1.6247	0.098557	0.042854	-0.011314	-0.27061	0.74043	-0.0592	0.0182	-0.0073	-0.0462	0.0165	0.9585
52.5364	-2.5739	731.7899	52.5669	-283.731	-43.1535	655.2616	1.4444	-0.87072	0.035731	-0.33684	-0.23344	-0.23218	-0.0592	0.0182	-0.0073	-0.0462	0.0165	0.9585
52.5543	1.9792	714.9336	50.0093	-277.2958	-38.3491	633.9742	1.2757	-2.1646	0.041512	-0.77754	-0.21488	-1.5137	-0.0592	0.0182	-0.0073	-0.0462	0.0165	0.9585
52.5721	7.3118	703.9925	47.7947	-273.2431	-33.5522	617.4338	1.1367	-3.7431	0.069583	-1.3202	-0.22956	-3.0718	-0.0592	0.0182	-0.0073	-0.0462	0.0165	0.9585
52.59	13.3585	698.9452	46.1517	-271.5172	-28.9938	605.6957	1.0362	-5.4512	0.12843	-1.9099	-0.28801	-4.7571	-0.0592	0.0182	-0.0073	-0.0462	0.0165	0.9585
52.6079	19.9373	699.1467	45.2438	-271.8224	-24.8956	598.3318	0.97304	-6.9575	0.22613	-2.4292	-0.39465	-6.2514	-0.0592	0.0182	-0.0073	-0.0462	0.0165	0.9585
52.6257	26.7966	703.4759	45.1383	-273.6878	-21.4244	594.5493	0.93891	-7.6945	0.36695	-2.6778	-0.54497	-7.0111	-0.0592	0.0182	-0.0073	-0.0462	0.0165	0.9585
52.6436	33.6515	710.4644	45.7807	-276.52	-18.6546	593.2863	0.92049	-6.8056	0.54678	-2.354	-0.72332	-6.2126	-0.0592	0.0182	-0.0073	-0.0462	0.0165	0.9585
52.6614	40.1855	718.3883	47.0114	-279.6348	-16.5862	593.2821	0.89724	-3.1231	0.74752	-1.0469	-0.89666	-2.7323	-0.0592	0.0182	-0.0073	-0.0462	0.0165	0.9585
52.6793	46.0688	725.3538	48.6191	-282.2881	-15.1818	593.1395	0.84328	4.7904	0.92682	1.7505	-1.0032	4.8174	-0.0592	0.0182	-0.0073	-0.0462	0.0165	0.9585
52.6971	50.9856	729.4019	50.3714	-283.7136	-14.3792	591.4018	0.72821	18.5004	1.0132	6.59	-0.95244	17.9527	-0.0592	0.0182	-0.0073	-0.0462	0.0165	0.9585
52.715	54.6415	728.6582	52.0247	-283.1789	-14.0945	586.6689	0.51816	39.4001	0.9067	13.96	-0.62691	38.0306	-0.0592	0.0182	-0.0073	-0.0462	0.0165	0.9585
52.7329	56.7833	721.4832	53.3325	-280.0504	-14.223	577.712	0.18131	68.199	0.47406	24.1046	0.11578	65.7534	-0.0592	0.0182	-0.0073	-0.0462	0.0165	0.9585
52.7507	57.2506	706.7176	54.0707	-273.8905	-14.6437	563.6418	-0.40342	104.2522	-0.45487	36.7828	1.4656	100.5282	-0.0592	0.0182	-0.0073	-0.0462	0.0165	0.9585
52.7686	56.0309	683.9927	54.0856	-264.5784	-15.2329	544.1392	-1.6685	145.089	-2.1264	51.0899	3.7745	140.0436	-0.0592	0.0182	-0.0073	-0.0462	0.0165	0.9585
52.7864	53.3099	653.9438	53.3428	-252.3919	-15.8825	519.5994	-4.0651	186.9609	-4.7396	65.6586	7.3477	180.7952	-0.0592	0.0182	-0.0073	-0.0462	0.0165	0.9585
52.8043	49.5091	618.1971	51.934	-238.0025	-16.4919	491.1118	-7.6125	226.9489	-8.0872	79.4328	11.9633	220.0307	-0.0592	0.0182	-0.0073	-0.0462	0.0165	0.9585
52.8221	45.2303	578.9606	50.0024	-222.3121	-16.9283	460.1653	-11.9229	264.2025	-11.8013	92.1078	17.1315	256.9008	-0.0592	0.0182	-0.0073	-0.0462	0.0165	0.9585
52.84	41.0672	538.3176	47.6498	-206.1695	-17.0274	428.1662	-16.5257	298.9712	-15.506	103.7855	22.3375	291.5649	-0.0592	0.0182	-0.0073	-0.0462	0.0165	0.9585
52.8579	37.4235	497.6689	44.9284	-190.1468	-16.6635	396.0666	-21.023	331.6355	-18.9205	114.6154	27.1845	324.2886	-0.0592	0.0182	-0.0073	-0.0462	0.0165	0.9585
52.8757	34.4827	457.7246	41.8707	-174.5288	-15.7847	364.3685	-25.0989	362.3863	-21.9569	124.672	31.4875	355.1431	-0.0592	0.0182	-0.0073	-0.0462	0.0165	0.9585
52.8936	32.2366	418.7699	38.5284	-159.4181	-14.4287	333.3103	-28.5359	391.2921	-24.7115	133.9791	35.2716	384.0848	-0.0592	0.0182	-0.0073	-0.0462	0.0165	0.9585
